<svg width="193" height="193" viewBox="0 0 193 193" fill="none" xmlns="http://www.w3.org/2000/svg">
<path d="M0.524414 54.3013C0.524414 24.4779 24.701 0.30127 54.5244 0.30127H138.524C168.348 0.30127 192.524 24.4779 192.524 54.3013V138.301C192.524 168.125 168.348 192.301 138.524 192.301H54.5244C24.701 192.301 0.524414 168.125 0.524414 138.301V54.3013Z" fill="#005FFF"/>
<g clip-path="url(#clip0_43_460)">
<path fill-rule="evenodd" clip-rule="evenodd" d="M160.585 81.5194L116.955 84.6251L98.6849 63.8407C97.3215 62.3049 94.9355 62.3049 93.572 63.8066L74.9951 84.591L31.4671 81.5194C28.6039 81.3146 26.7973 84.5569 28.4675 86.9117L59.0769 129.504C59.7245 130.392 60.7471 130.938 61.8378 130.938H130.283C131.374 130.938 132.396 130.392 133.044 129.504L163.619 86.9117C165.289 84.5569 163.483 81.3146 160.585 81.5194ZM69.2345 91.0413L63.7808 97.1504L42.6474 89.1301L69.2345 91.0413ZM40.8749 92.2358L91.1178 111.041L62.1787 121.86L40.8749 92.2358ZM94.356 124.18H66.0304L94.356 113.566V124.18ZM94.3901 108.549L70.7343 99.6418L94.3901 72.8848V108.549ZM149.235 89.1301L128.067 97.1504L122.613 91.0413L149.235 89.1301ZM97.7646 72.919L121.42 99.6418L97.7646 108.549V72.919ZM97.7646 124.18V113.566L126.09 124.18H97.7646ZM129.908 121.86L100.969 111.041L151.212 92.2358L129.908 121.86Z" fill="white"/>
</g>
<defs>
<clipPath id="clip0_43_460">
<rect width="136.447" height="68.2233" fill="white" transform="translate(27.8137 62.677)"/>
</clipPath>
</defs>
</svg>
